<svg width="69" height="22" viewBox="0 0 69 22" fill="none" xmlns="http://www.w3.org/2000/svg">
<path d="M0 0H29V17C18.5282 4.18418 12.3696 1.31663 0 17V0Z" fill="#7E30E1"/>
<path d="M37.31 9L38.53 1.46H41.35L42.39 5.42H42.46C42.51 5.09 42.56 4.74 42.65 4.42L43.5 1.46H46.29L47.53 9H44.88L44.51 4.87H44.46C44.41 5.12 44.36 5.38 44.28 5.62L43.19 9H41.59L40.61 5.81C40.53 5.49 40.46 5.19 40.44 4.87H40.35C40.33 5.17 40.31 5.48 40.28 5.78L39.96 9H37.31ZM48.5001 9V3.69H51.0801V9H48.5001ZM49.7901 0.809999C50.6001 0.809999 51.2101 1.28 51.2101 2.05C51.2101 2.92 50.5301 3.3 49.7901 3.3C49.0501 3.3 48.3701 2.92 48.3701 2.05C48.3701 1.28 48.9801 0.809999 49.7901 0.809999ZM51.8361 8.53L52.4961 6.93L52.6561 7.03C53.0161 7.25 53.5361 7.52 53.9761 7.52C54.1461 7.52 54.3561 7.43 54.3561 7.23C54.3561 6.94 54.0461 6.93 53.8361 6.9C52.9761 6.78 52.1761 6.43 52.1761 5.43C52.1761 4.1 53.5161 3.57 54.6561 3.57C55.3161 3.57 56.1361 3.7 56.7161 4.02L56.0861 5.49C55.7561 5.25 55.3161 5.05 54.8961 5.05C54.7361 5.05 54.5261 5.1 54.5261 5.29C54.5261 5.55 54.8061 5.57 55.1661 5.63C56.0861 5.78 56.8361 6.1 56.8361 7.17C56.8361 8.55 55.4661 9.12 54.2661 9.12C53.4261 9.12 52.6061 8.86 51.8361 8.53ZM60.5181 1.98V3.76L61.3781 3.72V5.75L60.5181 5.7V9H57.9181V5.7L57.2881 5.75V3.72L57.9181 3.76V1.98H60.5181ZM61.1843 3.69H63.9643L64.5543 5.77L64.7043 6.58H64.7743L64.9043 5.77L65.4943 3.69H68.2043L64.8043 11.19H62.0843L63.4543 8.47L61.1843 3.69ZM43.51 13.07V14.11C42.91 13.49 42.08 13.11 41.21 13.11C39.53 13.11 38.17 14.57 38.17 16.23C38.17 17.89 39.54 19.35 41.23 19.35C42.08 19.35 42.91 18.95 43.51 18.35V19.39C42.86 19.86 42.06 20.13 41.26 20.13C39.13 20.13 37.33 18.4 37.33 16.26C37.33 14.1 39.1 12.33 41.26 12.33C42.1 12.33 42.84 12.57 43.51 13.07ZM46.978 20.13C45.608 20.13 44.508 19.04 44.508 17.66C44.508 16.28 45.598 15.17 46.978 15.17C48.358 15.17 49.448 16.28 49.448 17.66C49.448 19.04 48.348 20.13 46.978 20.13ZM46.978 15.91C45.988 15.91 45.308 16.7 45.308 17.65C45.308 18.61 45.988 19.39 46.978 19.39C47.968 19.39 48.648 18.61 48.648 17.65C48.648 16.7 47.968 15.91 46.978 15.91ZM51.2832 15.3V17.92C51.2832 18.71 51.3732 19.39 52.3432 19.39C53.3132 19.39 53.4032 18.71 53.4032 17.92V15.3H54.2032V18.01C54.2032 19.26 53.7332 20.13 52.3432 20.13C50.9532 20.13 50.4832 19.26 50.4832 18.01V15.3H51.2832ZM56.4204 15.3V15.81H56.4404C56.7204 15.44 56.9604 15.17 57.4804 15.17C57.7504 15.17 57.9704 15.26 58.2004 15.39L57.8204 16.12C57.6604 16.01 57.5504 15.91 57.3404 15.91C56.4604 15.91 56.4204 17.04 56.4204 17.65V20H55.6204V15.3H56.4204ZM61.58 16.04L60.91 16.39C60.8 16.14 60.56 15.91 60.27 15.91C59.99 15.91 59.69 16.13 59.69 16.43C59.69 16.86 60.23 17.02 60.78 17.25C61.33 17.48 61.87 17.81 61.87 18.6C61.87 19.49 61.15 20.13 60.28 20.13C59.49 20.13 58.87 19.68 58.62 18.94L59.33 18.64C59.53 19.08 59.76 19.39 60.29 19.39C60.72 19.39 61.05 19.1 61.05 18.67C61.05 17.62 58.93 17.98 58.93 16.5C58.93 15.71 59.57 15.17 60.33 15.17C60.87 15.17 61.37 15.55 61.58 16.04ZM67.0941 17.82H63.4041C63.4141 18.69 64.0341 19.39 64.9441 19.39C65.6241 19.39 66.0641 18.98 66.3741 18.42L67.0541 18.81C66.6041 19.65 65.8441 20.13 64.8841 20.13C63.4841 20.13 62.5841 19.06 62.5841 17.71C62.5841 16.32 63.3941 15.17 64.8641 15.17C66.3741 15.17 67.1741 16.42 67.0941 17.82ZM63.4441 17.14H66.2541C66.1441 16.46 65.5741 15.91 64.8741 15.91C64.1841 15.91 63.5441 16.46 63.4441 17.14Z" fill="#541B9E"/>
</svg>
